HIERARCHY
ROOT pelvis
{
	OFFSET 0.003123 -0.351407 0.012037
	CHANNELS 6 Xposition Yposition Zposition Zrotation Yrotation Xrotation 
	JOINT left_hip
	{
		OFFSET 0.058189 -0.092763 -0.026001
		CHANNELS 3 Zrotation Yrotation Xrotation
		JOINT left_knee
		{
			OFFSET 0.054695 -0.378753 -0.009396
			CHANNELS 3 Zrotation Yrotation Xrotation
			JOINT left_ankle
			{
				OFFSET -0.043453 -0.403059 -0.031876
				CHANNELS 3 Zrotation Yrotation Xrotation
				JOINT left_foot
				{
					OFFSET 0.047257 -0.057997 0.118216
					CHANNELS 3 Zrotation Yrotation Xrotation
					End Site
					{
						OFFSET 0.000000 0.000000 0.000000
					}
				}
			}
		}
	}
	JOINT right_hip
	{
		OFFSET -0.063267 -0.103908 -0.021250
		CHANNELS 3 Zrotation Yrotation Xrotation
		JOINT right_knee
		{
			OFFSET -0.044210 -0.362380 -0.016824
			CHANNELS 3 Zrotation Yrotation Xrotation
			JOINT right_ankle
			{
				OFFSET 0.015417 -0.410728 -0.020192
				CHANNELS 3 Zrotation Yrotation Xrotation
				JOINT right_foot
				{
					OFFSET -0.038812 -0.058328 0.119049
					CHANNELS 3 Zrotation Yrotation Xrotation
					End Site
					{
						OFFSET 0.000000 0.000000 0.000000
					}
				}
			}
		}
	}
	JOINT spine_1
	{
		OFFSET -0.002763 0.109891 -0.027618
		CHANNELS 3 Zrotation Yrotation Xrotation
		JOINT spine_2
		{
			OFFSET 0.009448 0.131853 -0.005940
			CHANNELS 3 Zrotation Yrotation Xrotation
			JOINT spine_3
			{
				OFFSET -0.011330 0.052235 0.028447
				CHANNELS 3 Zrotation Yrotation Xrotation
				JOINT neck
				{
					OFFSET -0.012164 0.165167 -0.031615
					CHANNELS 3 Zrotation Yrotation Xrotation
					JOINT head
					{
						OFFSET 0.024783 0.160452 0.020737
						CHANNELS 3 Zrotation Yrotation Xrotation
						End Site
						{
							OFFSET 0.000000 0.000000 0.000000
						}
					}
				}
				JOINT left_collar
				{
					OFFSET 0.046364 0.084944 -0.007220
					CHANNELS 3 Zrotation Yrotation Xrotation
					JOINT left_shoulder
					{
						OFFSET 0.119239 0.057728 -0.015461
						CHANNELS 3 Zrotation Yrotation Xrotation
						JOINT left_elbow
						{
							OFFSET 0.254123 -0.072151 -0.042459
							CHANNELS 3 Zrotation Yrotation Xrotation
							JOINT left_wrist
							{
								OFFSET 0.251987 0.023221 -0.002472
								CHANNELS 3 Zrotation Yrotation Xrotation
								JOINT left_index_1
								{
									OFFSET 0.101902 -0.008688 0.019351
									CHANNELS 3 Zrotation Yrotation Xrotation
									JOINT left_index_2
									{
										OFFSET 0.030149 -0.011154 0.001151
										CHANNELS 3 Zrotation Yrotation Xrotation
										JOINT left_index_3
										{
											OFFSET 0.006504 -0.021577 -0.002433
											CHANNELS 3 Zrotation Yrotation Xrotation
											End Site
											{
												OFFSET 0.000000 0.000000 0.000000
											}
										}
									}
								}
								JOINT left_middle_1
								{
									OFFSET 0.109398 -0.006328 -0.003981
									CHANNELS 3 Zrotation Yrotation Xrotation
									JOINT left_middle_2
									{
										OFFSET 0.026472 -0.015218 -0.004641
										CHANNELS 3 Zrotation Yrotation Xrotation
										JOINT left_middle_3
										{
											OFFSET 0.005022 -0.023347 -0.001911
											CHANNELS 3 Zrotation Yrotation Xrotation
											End Site
											{
												OFFSET 0.000000 0.000000 0.000000
											}
										}
									}
								}
								JOINT left_pinky_1
								{
									OFFSET 0.084047 -0.014539 -0.043750
									CHANNELS 3 Zrotation Yrotation Xrotation
									JOINT left_pinky_2
									{
										OFFSET 0.012124 -0.014448 -0.005375
										CHANNELS 3 Zrotation Yrotation Xrotation
										JOINT left_pinky_3
										{
											OFFSET 0.003798 -0.018853 0.000167
											CHANNELS 3 Zrotation Yrotation Xrotation
											End Site
											{
												OFFSET 0.000000 0.000000 0.000000
											}
										}
									}
								}
								JOINT left_ring_1
								{
									OFFSET 0.097444 -0.009268 -0.027345
									CHANNELS 3 Zrotation Yrotation Xrotation
									JOINT left_ring_2
									{
										OFFSET 0.023561 -0.016057 -0.001895
										CHANNELS 3 Zrotation Yrotation Xrotation
										JOINT left_ring_3
										{
											OFFSET 0.004257 -0.023548 0.000814
											CHANNELS 3 Zrotation Yrotation Xrotation
											End Site
											{
												OFFSET 0.000000 0.000000 0.000000
											}
										}
									}
								}
								JOINT left_thumb_1
								{
									OFFSET 0.040636 -0.017977 0.025611
									CHANNELS 3 Zrotation Yrotation Xrotation
									JOINT left_thumb_2
									{
										OFFSET 0.021637 -0.017639 0.011623
										CHANNELS 3 Zrotation Yrotation Xrotation
										JOINT left_thumb_3
										{
											OFFSET 0.024002 -0.008356 0.006548
											CHANNELS 3 Zrotation Yrotation Xrotation
											End Site
											{
												OFFSET 0.000000 0.000000 0.000000
											}
										}
									}
								}
							}
						}
					}
				}
				JOINT right_collar
				{
					OFFSET -0.047695 0.084339 -0.013400
					CHANNELS 3 Zrotation Yrotation Xrotation
					JOINT right_shoulder
					{
						OFFSET -0.102578 0.053524 -0.012669
						CHANNELS 3 Zrotation Yrotation Xrotation
						JOINT right_elbow
						{
							OFFSET -0.271150 -0.036492 -0.026467
							CHANNELS 3 Zrotation Yrotation Xrotation
							JOINT right_wrist
							{
								OFFSET -0.249267 -0.004533 -0.015325
								CHANNELS 3 Zrotation Yrotation Xrotation
								JOINT right_index_1
								{
									OFFSET -0.099881 -0.011783 0.019600
									CHANNELS 3 Zrotation Yrotation Xrotation
									JOINT right_index_2
									{
										OFFSET -0.030148 -0.011154 0.001151
										CHANNELS 3 Zrotation Yrotation Xrotation
										JOINT right_index_3
										{
											OFFSET -0.006505 -0.021577 -0.002432
											CHANNELS 3 Zrotation Yrotation Xrotation
											End Site
											{
												OFFSET 0.000000 0.000000 0.000000
											}
										}
									}
								}
								JOINT right_middle_1
								{
									OFFSET -0.107376 -0.009422 -0.003734
									CHANNELS 3 Zrotation Yrotation Xrotation
									JOINT right_middle_2
									{
										OFFSET -0.026472 -0.015218 -0.004641
										CHANNELS 3 Zrotation Yrotation Xrotation
										JOINT right_middle_3
										{
											OFFSET -0.005022 -0.023347 -0.001911
											CHANNELS 3 Zrotation Yrotation Xrotation
											End Site
											{
												OFFSET 0.000000 0.000000 0.000000
											}
										}
									}
								}
								JOINT right_pinky_1
								{
									OFFSET -0.082027 -0.017634 -0.043503
									CHANNELS 3 Zrotation Yrotation Xrotation
									JOINT right_pinky_2
									{
										OFFSET -0.012123 -0.014448 -0.005374
										CHANNELS 3 Zrotation Yrotation Xrotation
										JOINT right_pinky_3
										{
											OFFSET -0.003798 -0.018852 0.000167
											CHANNELS 3 Zrotation Yrotation Xrotation
											End Site
											{
												OFFSET 0.000000 0.000000 0.000000
											}
										}
									}
								}
								JOINT right_ring_1
								{
									OFFSET -0.095423 -0.012362 -0.027099
									CHANNELS 3 Zrotation Yrotation Xrotation
									JOINT right_ring_2
									{
										OFFSET -0.023561 -0.016057 -0.001895
										CHANNELS 3 Zrotation Yrotation Xrotation
										JOINT right_ring_3
										{
											OFFSET -0.004257 -0.023548 0.000816
											CHANNELS 3 Zrotation Yrotation Xrotation
											End Site
											{
												OFFSET 0.000000 0.000000 0.000000
											}
										}
									}
								}
								JOINT right_thumb_1
								{
									OFFSET -0.038613 -0.021074 0.025861
									CHANNELS 3 Zrotation Yrotation Xrotation
									JOINT right_thumb_2
									{
										OFFSET -0.021636 -0.017639 0.011623
										CHANNELS 3 Zrotation Yrotation Xrotation
										JOINT right_thumb_3
										{
											OFFSET -0.024004 -0.008353 0.006547
											CHANNELS 3 Zrotation Yrotation Xrotation
											End Site
											{
												OFFSET 0.000000 0.000000 0.000000
											}
										}
									}
								}
							}
						}
					}
				}
			}
		}
	}
}
MOTION
Frames: 4
Frame Time: 0.050000
0.227104 0.932237 0.717285 -119.314234 -83.952680 113.194133 3.496062 4.654033 -14.591680 35.880023 2.046410 27.310335 -127.176066 58.707146 23.897187 0.000000 0.000000 0.000000 0.712760 5.373495 17.070123 -0.613836 4.568386 -13.470094 -45.435060 -11.761845 45.306079 0.000000 0.000000 0.000000 -5.822235 2.102444 18.239543 10.849880 2.079062 -35.131342 -19.964041 -43.001934 46.526044 7.758560 2.139849 -0.951765 0.000000 0.000000 0.000000 14.855337 -2.424708 77.535013 127.194874 -76.101004 -94.859341 11.373264 3.812386 -0.674705 13.347366 -7.569313 -43.783949 -10.960526 -10.357579 1.792700 -15.047076 -37.838263 -19.729762 0.000000 0.000000 0.000000 -15.887055 -16.113640 -2.905945 0.612029 -13.847792 -22.426667 0.000000 0.000000 0.000000 -5.333002 -27.714112 -23.876546 -13.703973 -8.150604 -16.330299 0.000000 0.000000 0.000000 -15.976972 -15.961828 -2.696313 11.114255 -7.992644 -23.489992 0.000000 0.000000 0.000000 31.725910 9.403899 -3.742982 -20.096415 10.630452 13.246034 0.000000 0.000000 0.000000 -17.845939 -5.915304 -65.191710 -105.538792 -80.765232 65.088525 20.077733 -24.750864 -9.174831 -9.227013 -0.186528 58.883507 30.935042 -21.290834 -4.319379 -30.893366 -3.809629 24.385703 0.000000 0.000000 0.000000 9.736348 -12.490815 1.170161 11.544605 -31.189198 25.717328 0.000000 0.000000 0.000000 -74.655563 1.976737 -14.276243 175.102690 26.747316 5.083270 0.000000 0.000000 0.000000 -20.994248 -7.852440 0.640289 -84.843755 -59.152947 153.551118 0.000000 0.000000 0.000000 -7.969868 -32.794216 23.873742 -6.681630 10.621588 -8.743163 0.000000 0.000000 0.000000 
0.226162 0.929497 0.735764 -58.526664 -82.874906 52.430493 1.468732 3.584332 -15.801775 36.264042 0.842266 25.067368 -122.256462 61.479087 29.448622 0.000000 0.000000 0.000000 3.068093 4.712563 19.795303 -4.014382 4.023345 -15.952441 -50.848265 -11.281716 54.169425 0.000000 0.000000 0.000000 -4.924835 1.793055 20.044463 12.056693 3.058015 -39.410378 -21.941081 -43.062359 47.613428 10.616617 2.276947 -0.876402 0.000000 0.000000 0.000000 23.059208 -11.895869 86.179327 128.429425 -65.274489 -77.540519 12.784675 12.887087 -0.858279 16.735221 -6.088095 -50.345366 -3.643535 -12.504566 0.919286 2.039513 -59.301442 -43.254026 0.000000 0.000000 0.000000 -14.832399 -19.227091 -3.478128 8.192524 -17.881941 -31.922062 0.000000 0.000000 0.000000 -5.439113 -34.262628 -28.124023 -4.581611 -3.741707 -9.189553 0.000000 0.000000 0.000000 -16.905164 -22.197115 -4.083998 19.009528 -5.506817 -24.449091 0.000000 0.000000 0.000000 40.343540 9.745770 -3.561573 -27.376386 8.672444 14.409671 0.000000 0.000000 0.000000 -22.756433 -17.052753 -72.601000 -119.189378 -62.694660 61.992499 6.231400 -29.013133 -4.519272 -10.016087 3.023531 61.206105 32.184548 -30.105528 -5.312467 -40.681870 -0.406062 25.172901 0.000000 0.000000 0.000000 6.315957 -11.247994 2.216373 -5.455525 -41.723846 51.113679 0.000000 0.000000 0.000000 -90.146582 0.231204 -31.615214 -125.931350 8.168333 -6.886947 0.000000 0.000000 0.000000 -33.810382 -3.236535 -4.332673 -93.450916 6.994682 157.745318 0.000000 0.000000 0.000000 -10.939309 -41.308406 30.406419 -8.050513 15.324776 -11.591782 0.000000 0.000000 0.000000 
0.224277 0.926596 0.754242 -42.954813 -80.807880 37.055112 -0.781440 2.540338 -15.824793 36.251897 0.385711 23.619640 -119.120629 60.941191 32.502707 0.000000 0.000000 0.000000 4.258798 4.558409 21.432380 -7.180714 3.676126 -17.559936 -54.355278 -9.370885 60.415980 0.000000 0.000000 0.000000 -5.495298 2.150649 20.818961 12.249192 3.388131 -41.619630 -19.726269 -42.905457 46.755624 12.017139 2.237419 -1.900018 0.000000 0.000000 0.000000 31.702140 -19.759802 93.318343 128.134490 -55.664185 -56.175321 10.841106 23.874996 -1.700137 20.773311 -2.530209 -53.325906 11.276264 -11.832993 0.016233 67.324076 -55.636865 -105.267379 0.000000 0.000000 0.000000 -8.632628 -25.309651 -6.026174 23.264981 -21.892619 -45.495147 0.000000 0.000000 0.000000 -0.829292 -42.316938 -35.190898 10.879636 -2.327401 -6.601464 0.000000 0.000000 0.000000 -13.920647 -30.238638 -7.348622 27.833823 -3.301735 -27.016257 0.000000 0.000000 0.000000 54.991173 10.877452 -0.884011 -36.010262 5.386159 15.862767 0.000000 0.000000 0.000000 -28.454922 -26.363755 -77.740162 -120.755741 -48.427961 48.168317 -5.204756 -24.826460 -0.330590 -14.154724 3.302865 54.948509 27.463752 -37.268111 -2.784231 -49.244623 2.251695 28.421992 0.000000 0.000000 0.000000 -5.496455 -8.219062 4.035308 -39.938409 -39.146385 93.636689 0.000000 0.000000 0.000000 -94.712311 -0.698246 -53.461282 -64.009994 5.201743 5.847747 0.000000 0.000000 0.000000 -51.222135 6.100037 -19.406799 -159.569368 50.846883 67.978031 0.000000 0.000000 0.000000 -27.192632 -51.879906 46.059957 -7.490410 27.035985 -17.187528 0.000000 0.000000 0.000000 
0.224277 0.923856 0.775360 -20.687332 -71.115359 15.323645 -5.476660 0.826236 -17.192704 39.193604 -0.732246 19.723183 -105.035407 66.044591 46.919017 0.000000 0.000000 0.000000 8.631932 2.598317 24.042604 -14.057097 2.300281 -18.737530 -55.533584 -8.023428 73.406366 0.000000 0.000000 0.000000 -3.471860 1.557706 23.779506 9.836845 3.102669 -48.750272 -17.992318 -41.346715 46.596931 15.515648 2.604471 -4.171385 0.000000 0.000000 0.000000 50.302769 -33.324084 94.161157 122.813440 -44.297786 -22.181826 0.974448 36.329857 -5.881084 25.381767 3.963137 -46.347107 32.081830 0.772262 6.250754 111.597048 0.156964 -94.382568 0.000000 0.000000 0.000000 5.166392 -31.220673 -11.419436 60.129012 -15.210741 -61.741180 0.000000 0.000000 0.000000 24.844733 -50.177468 -58.809830 20.537982 -0.933930 -1.578064 0.000000 0.000000 0.000000 0.312349 -43.526907 -18.580361 46.504539 1.716937 -26.458744 0.000000 0.000000 0.000000 76.666212 18.064016 17.489336 -42.753671 -12.051993 14.761908 0.000000 0.000000 0.000000 -41.973464 -42.170570 -76.430751 -116.829687 -31.623085 27.682290 -15.277676 -15.796158 2.019435 -19.170374 3.666830 39.194818 13.560144 -46.509959 5.376929 -65.810092 7.773795 25.023079 0.000000 0.000000 0.000000 -14.861038 -3.705707 3.531246 -62.584266 -4.093034 108.981600 0.000000 0.000000 0.000000 -89.401889 5.105551 -69.704641 -43.915701 1.766838 5.376095 0.000000 0.000000 0.000000 -57.872867 16.201104 -34.695423 -170.532505 3.063849 8.679308 0.000000 0.000000 0.000000 -48.788261 -50.660056 60.229209 5.150072 31.856666 -10.324637 0.000000 0.000000 0.000000 
